<svg xmlns="http://www.w3.org/2000/svg" width="100%" height="100%" viewBox="0 0 300 51">
        <style>
            @keyframes draw {
                to {
                    stroke-dashoffset: 0;
                }
            }
        </style>
        <foreignObject width="100%" height="100%">
        <div xmlns="http://www.w3.org/1999/xhtml" style="display: flex; align-items: center; height: 100%; justify-content: center;"><div style="display: inline-flex; align-items: center; margin: 0 -4px 0 -10px;"><svg style="display: inline-block; width: 45px; height: 100%;"  xmlns="http://www.w3.org/2000/svg" fill="none" viewBox="0 0 45 51" height="51" width="45"><path stroke-dasharray="111" stroke-dashoffset="111" style="animation: draw 1.11s 0s forwards;" stroke="#004AAD" fill="none" stroke-linecap="round" stroke-linejoin="round" d="M1.73633 45.7104C2.46255 39.6904 11.2363 23.2104 19.7363 14.2104C17.7363 36.7104 21.3778 43.3814 24.7363 43.2104C28.0949 43.0395 33.0666 31.1917 43.2363 5.21045"></path></svg></div><div style="display: inline-flex; align-items: center; margin: 0 -2.5px 0 0;"><svg style="display: inline-block; width: 7px; height: 100%;"  xmlns="http://www.w3.org/2000/svg" fill="none" viewBox="0 0 7 51" height="51" width="7"><path stroke-dasharray="17" stroke-dashoffset="17" style="animation: draw 0.17s 1.11s forwards;" stroke="#004AAD" fill="none" stroke-linecap="round" stroke-linejoin="round" d="M3.30217 23.604C2.72482 23.9566 0.574341 28.3484 1.66563 28.4119C2.75692 28.4755 7.24524 21.8731 4.4886 23.027C3.29045 23.5286 2.14727 24.4054 2.14727 24.4054"></path></svg></div><div style="display: inline-flex; align-items: center; margin: 0 -3px 0 -1px;"><svg style="display: inline-block; width: 13px; height: 100%;"  xmlns="http://www.w3.org/2000/svg" fill="none" viewBox="0 0 13 51" height="51" width="13"><path stroke-dasharray="24" stroke-dashoffset="24" style="animation: draw 0.24s 1.28s forwards;" stroke="#004AAD" fill="none" stroke-linecap="round" stroke-linejoin="round" d="M4.04688 23.3381L1.02539 30.1005C7.1047 22.5828 11.8527 19.8132 11.2412 24.1654"></path></svg></div><div style="display: inline-flex; align-items: center; margin: 0 -12.5px 0 -3.5px;"><svg style="display: inline-block; width: 24px; height: 100%;"  xmlns="http://www.w3.org/2000/svg" fill="none" viewBox="0 0 24 51" height="51" width="24"><path stroke-dasharray="91" stroke-dashoffset="91" style="animation: draw 0.91s 1.52s forwards;" stroke="#004AAD" fill="none" stroke-linecap="round" stroke-linejoin="round" d="M0.966797 16.3342C6.66806 14.1572 15.5438 14.1786 22.957 15.9795C12.1532 14.4252 15.852 9.92493 18.1685 5.96021C9.87226 17.3225 -0.709346 36.7351 1.78362 36.9101C3.40185 37.0413 9.39371 29.0376 13.8793 24.8435"></path></svg></div><div style="display: inline-flex; align-items: center; margin: 0 -4px 0 -1px;"><svg style="display: inline-block; width: 18px; height: 100%;"  xmlns="http://www.w3.org/2000/svg" fill="none" viewBox="0 0 18 51" height="51" width="18"><path stroke-dasharray="48" stroke-dashoffset="48" style="animation: draw 0.48s 2.43s forwards;" stroke="#004AAD" fill="none" stroke-linecap="round" stroke-linejoin="round" d="M14.75 6.08472C8.75724 15.6124 5.74081 20.6113 1.16797 28.7222C2.27051 26.7174 7.40879 23.7648 9.19185 23.8223C10.4381 23.8798 8.46919 26.815 9.75037 27.5733C11.2054 28.4346 16.3726 24.6677 16.3726 24.6677"></path></svg></div><div style="display: inline-flex; align-items: center; margin: 0 -12px 0 -4px;"><svg style="display: inline-block; width: 19px; height: 100%;"  xmlns="http://www.w3.org/2000/svg" fill="none" viewBox="0 0 19 51" height="51" width="19"><path stroke-dasharray="33" stroke-dashoffset="33" style="animation: draw 0.33s 2.91s forwards;" stroke="#004AAD" fill="none" stroke-linecap="round" stroke-linejoin="round" d="M0.800781,34.0845C7.00167,23.7712 10.562,17.889 17.543,6.64502"></path></svg></div><div style="display: inline-flex; align-items: center; margin: 0 -4px 0 0;"><svg style="display: inline-block; width: 13px; height: 100%;"  xmlns="http://www.w3.org/2000/svg" fill="none" viewBox="0 0 13 51" height="51" width="13"><path stroke-dasharray="36" stroke-dashoffset="36" style="animation: draw 0.36s 3.24s forwards;" stroke="#004AAD" fill="none" stroke-linecap="round" stroke-linejoin="round" d="M5.99958 25C5.73591 21.1582 1.99899 25.5 1.49941 28C1.00013 30.5 7.65454 23.3545 7.65454 23.3545C3.5802 27.3691 3.29278 30.5313 4.09638 30.7478C5.08629 31.0263 12.2012 24.7466 12.2012 24.7466"></path></svg></div><div style="display: inline-flex; align-items: center; margin: 0 -5px 0 0;"><svg style="display: inline-block; width: 15px; height: 100%;"  xmlns="http://www.w3.org/2000/svg" fill="none" viewBox="0 0 15 51" height="51" width="15"><path stroke-dasharray="27" stroke-dashoffset="27" style="animation: draw 0.27s 3.6s forwards;" stroke="#004AAD" fill="none" stroke-linecap="round" stroke-linejoin="round" d="M4.42188 23.1724L1.16211 28.4658C3.87099 25.9122 7.65167 23.2024 8.42922 23.7108C8.87781 23.9799 6.69468 26.9705 7.8311 27.4191C8.96753 27.8677 11.8983 25.565 14.0814 24.7575"></path></svg></div><div style="display: inline-flex; align-items: center; margin: 0 -11.3px 0 0;"><svg style="display: inline-block; width: 20px; height: 100%;"  xmlns="http://www.w3.org/2000/svg" fill="none" viewBox="0 0 20 51" height="51" width="20"><path stroke-dasharray="73" stroke-dashoffset="73" style="animation: draw 0.73s 3.87s forwards;" stroke="#004AAD" fill="none" stroke-linecap="round" stroke-linejoin="round" d="M6.08732 26.1229C8.23611 18.5681 -0.331592 27.5316 1.908 28.6301C7.01852 28.6767 10.2741 20.6086 19.1923 6.23315C9.56633 22.4841 2.35848 34.2032 2.35848 34.2032"></path></svg></div><div style="width: 7px;"></div><div style="display: inline-flex; align-items: center; margin: 0 -14px 0 -2px;"><svg style="display: inline-block; width: 46px; height: 100%;"  xmlns="http://www.w3.org/2000/svg" fill="none" viewBox="0 0 46 51" height="51" width="46"><path stroke-dasharray="100" stroke-dashoffset="100" style="animation: draw 1s 4.6s forwards;" stroke="#004AAD" fill="none" stroke-linecap="round" stroke-linejoin="round" d="M44.435 9.39728C49.435 -5.10286 -4.56457 25.3972 1.43476 32.8973C6.23411 38.8972 25.0605 38.3972 24.4355 40.8972C23.8105 43.3972 10.9355 44.8972 7.93479 42.8973"></path></svg></div><div style="display: inline-flex; align-items: center; margin: 0 -12.5px 0 -3.5px;"><svg style="display: inline-block; width: 24px; height: 100%;"  xmlns="http://www.w3.org/2000/svg" fill="none" viewBox="0 0 24 51" height="51" width="24"><path stroke-dasharray="91" stroke-dashoffset="91" style="animation: draw 0.91s 5.6s forwards;" stroke="#004AAD" fill="none" stroke-linecap="round" stroke-linejoin="round" d="M0.966797 16.3342C6.66806 14.1572 15.5438 14.1786 22.957 15.9795C12.1532 14.4252 15.852 9.92493 18.1685 5.96021C9.87226 17.3225 -0.709346 36.7351 1.78362 36.9101C3.40185 37.0413 9.39371 29.0376 13.8793 24.8435"></path></svg></div><div style="display: inline-flex; align-items: center; margin: 0 -4.5px 0 0;"><svg style="display: inline-block; width: 13px; height: 100%;"  xmlns="http://www.w3.org/2000/svg" fill="none" viewBox="0 0 13 51" height="51" width="13"><path stroke-dasharray="28" stroke-dashoffset="28" style="animation: draw 0.28s 6.51s forwards;" stroke="#004AAD" fill="none" stroke-linecap="round" stroke-linejoin="round" d="M4.02467 23.277C3.02512 22.8065 0.89338 26.614 1.20215 28.0439C1.51091 29.4737 7.5177 23.0864 7.5177 23.0864C7.5177 23.0864 4.71947 27.0005 5.80301 28.3576C6.96087 28.8941 10.5935 24.8364 11.7727 24.2932"></path></svg></div><div style="display: inline-flex; align-items: center; margin: 0 -11.3px 0 0;"><svg style="display: inline-block; width: 20px; height: 100%;"  xmlns="http://www.w3.org/2000/svg" fill="none" viewBox="0 0 20 51" height="51" width="20"><path stroke-dasharray="73" stroke-dashoffset="73" style="animation: draw 0.73s 6.79s forwards;" stroke="#004AAD" fill="none" stroke-linecap="round" stroke-linejoin="round" d="M6.08732 26.1229C8.23611 18.5681 -0.331592 27.5316 1.908 28.6301C7.01852 28.6767 10.2741 20.6086 19.1923 6.23315C9.56633 22.4841 2.35848 34.2032 2.35848 34.2032"></path></svg></div><div style="display: inline-flex; align-items: center; margin: 0 -3.5px 0 0;"><svg style="display: inline-block; width: 9px; height: 100%;"  xmlns="http://www.w3.org/2000/svg" fill="none" viewBox="0 0 9 51" height="51" width="9"><path stroke-dasharray="16" stroke-dashoffset="16" style="animation: draw 0.16s 7.52s forwards;" stroke="#004AAD" fill="none" stroke-linecap="round" stroke-linejoin="round" d="M3.7548 22.9229C2.60207 23.529 -0.752212 29.5295 1.61166 28.7618C3.97553 27.994 5.61205 25.8726 7.67374 24.721"></path></svg></div><div style="display: inline-flex; align-items: center; margin: 0 -2.5px 0 0;"><svg style="display: inline-block; width: 7px; height: 100%;"  xmlns="http://www.w3.org/2000/svg" fill="none" viewBox="0 0 7 51" height="51" width="7"><path stroke-dasharray="17" stroke-dashoffset="17" style="animation: draw 0.17s 7.68s forwards;" stroke="#004AAD" fill="none" stroke-linecap="round" stroke-linejoin="round" d="M3.30217 23.604C2.72482 23.9566 0.574341 28.3484 1.66563 28.4119C2.75692 28.4755 7.24524 21.8731 4.4886 23.027C3.29045 23.5286 2.14727 24.4054 2.14727 24.4054"></path></svg></div></div></foreignObject></svg>